<svg width="25" height="25" viewBox="0 0 25 25" fill="none" xmlns="http://www.w3.org/2000/svg">
<g clip-path="url(#clip0_2_613)">
<path d="M5.56891 15.3989L4.7335 18.5176L1.68011 18.5822C0.767594 16.8897 0.25 14.9532 0.25 12.8954C0.25 10.9055 0.733938 9.02901 1.59175 7.37671H1.59241L4.31078 7.87508L5.50159 10.5771C5.25236 11.3038 5.11652 12.0838 5.11652 12.8954C5.11661 13.7763 5.27617 14.6203 5.56891 15.3989Z" fill="#FBBB00"/>
<path d="M24.0403 10.6537C24.1781 11.3796 24.25 12.1293 24.25 12.8954C24.25 13.7546 24.1597 14.5926 23.9876 15.401C23.4034 18.1517 21.877 20.5537 19.7625 22.2535L19.7619 22.2528L16.338 22.0781L15.8534 19.053C17.2564 18.2302 18.3529 16.9425 18.9305 15.401H12.5138V10.6537H19.0241H24.0403Z" fill="#518EF8"/>
<path d="M19.7619 22.2528L19.7625 22.2534C17.7061 23.9064 15.0937 24.8954 12.25 24.8954C7.68012 24.8954 3.70694 22.3411 1.68011 18.5822L5.56891 15.3989C6.5823 18.1035 9.19132 20.0288 12.25 20.0288C13.5647 20.0288 14.7964 19.6734 15.8533 19.053L19.7619 22.2528Z" fill="#28B446"/>
<path d="M19.9095 3.65801L16.0221 6.84064C14.9282 6.15692 13.6352 5.76195 12.25 5.76195C9.12207 5.76195 6.46425 7.77556 5.50163 10.5771L1.59239 7.3767H1.59174C3.58889 3.52615 7.61217 0.895386 12.25 0.895386C15.1616 0.895386 17.8313 1.93254 19.9095 3.65801Z" fill="#F14336"/>
</g>
<defs>
<clipPath id="clip0_2_613">
<rect width="24" height="24" fill="white" transform="translate(0.25 0.895386)"/>
</clipPath>
</defs>
</svg>
